<svg xmlns="http://www.w3.org/2000/svg" xmlns:xlink="http://www.w3.org/1999/xlink" width="1920" zoomAndPan="magnify" viewBox="0 0 1440 374.999991" height="500" preserveAspectRatio="xMidYMid meet" version="1.0"><defs><g/></defs><g fill="#000000" fill-opacity="1"><g transform="translate(0.00001728, 260.999983)"><g><path d="M 86.722656 -188.246094 C 18.054688 -188.246094 17.757812 -131.121094 17.757812 -118.691406 L 17.757812 -65.117188 C 17.757812 -54.164062 18.054688 1.777344 86.722656 1.777344 C 155.394531 1.777344 155.6875 -54.164062 155.6875 -65.117188 L 155.6875 -118.691406 C 155.6875 -131.121094 155.394531 -188.246094 86.722656 -188.246094 Z M 86.722656 -25.75 C 74.589844 -25.75 46.46875 -30.488281 46.46875 -67.484375 L 46.46875 -118.988281 C 46.46875 -155.984375 74.589844 -160.722656 86.722656 -160.722656 C 98.859375 -160.722656 126.980469 -155.984375 126.980469 -118.988281 L 126.980469 -67.484375 C 126.980469 -30.488281 98.859375 -25.75 86.722656 -25.75 Z M 86.722656 -25.75 "/></g></g></g><g fill="#000000" fill-opacity="1"><g transform="translate(173.448388, 260.999983)"><g><path d="M 49.429688 -115.140625 C 49.429688 -115.140625 65.414062 -118.691406 78.140625 -118.691406 C 111.882812 -118.691406 113.363281 -92.941406 113.363281 -71.332031 C 113.363281 -48.839844 110.105469 -25.75 78.140625 -25.75 C 67.484375 -25.75 49.429688 -30.78125 49.429688 -30.78125 Z M 20.71875 38.773438 C 20.71875 42.328125 23.679688 44.101562 26.046875 44.101562 L 44.101562 44.101562 C 46.46875 44.101562 49.429688 42.328125 49.429688 38.773438 L 49.429688 -5.328125 C 70.148438 1.777344 84.058594 1.777344 90.570312 1.777344 C 112.476562 1.777344 142.371094 -16.574219 142.371094 -69.851562 C 142.371094 -130.53125 114.25 -146.21875 82.582031 -146.21875 C 54.757812 -146.21875 20.71875 -139.113281 20.71875 -134.675781 Z M 20.71875 38.773438 "/></g></g></g><g fill="#000000" fill-opacity="1"><g transform="translate(332.0974, 260.999983)"><g><path d="M 46.46875 -84.652344 C 46.46875 -116.914062 69.261719 -118.691406 77.84375 -118.691406 C 86.132812 -118.691406 108.921875 -116.914062 108.921875 -84.652344 Z M 118.691406 -27.824219 C 108.921875 -26.933594 102.117188 -25.75 95.308594 -25.75 C 64.523438 -25.75 48.839844 -27.824219 46.765625 -56.828125 L 46.765625 -58.605469 L 132.304688 -58.605469 C 134.675781 -58.605469 137.632812 -60.382812 137.632812 -63.933594 L 137.632812 -83.171875 C 137.632812 -98.859375 132.898438 -146.21875 76.660156 -146.21875 C 21.605469 -146.21875 17.757812 -100.636719 17.757812 -84.949219 L 17.757812 -64.230469 C 17.757812 -15.09375 46.46875 2.367188 83.765625 2.367188 C 97.675781 2.367188 111.585938 1.183594 123.128906 -1.183594 C 125.203125 -1.777344 125.792969 -4.144531 125.792969 -5.03125 L 122.835938 -25.160156 C 121.945312 -27.230469 120.171875 -27.824219 118.691406 -27.824219 Z M 118.691406 -27.824219 "/></g></g></g><g fill="#000000" fill-opacity="1"><g transform="translate(487.490558, 260.999983)"><g><path d="M 142.371094 -80.507812 C 142.371094 -128.457031 121.945312 -146.21875 80.210938 -146.21875 C 63.339844 -146.21875 20.71875 -140.59375 20.71875 -134.675781 L 20.71875 -5.328125 C 20.71875 -1.777344 23.679688 0 26.046875 0 L 44.101562 0 C 46.46875 0 49.429688 -1.777344 49.429688 -5.328125 L 49.429688 -113.957031 C 49.429688 -113.957031 66.597656 -118.691406 78.140625 -118.691406 C 95.011719 -118.691406 113.660156 -112.769531 113.660156 -87.613281 L 113.660156 -5.328125 C 113.660156 -1.777344 116.617188 0 118.988281 0 L 137.042969 0 C 139.410156 0 142.371094 -1.777344 142.371094 -5.328125 Z M 142.371094 -80.507812 "/></g></g></g><g fill="#000000" fill-opacity="1"><g transform="translate(647.61953, 260.999983)"><g><path d="M 49.429688 -115.140625 C 49.429688 -115.140625 65.414062 -118.691406 78.140625 -118.691406 C 111.882812 -118.691406 113.363281 -92.941406 113.363281 -71.332031 C 113.363281 -48.839844 110.105469 -25.75 78.140625 -25.75 C 67.484375 -25.75 49.429688 -30.78125 49.429688 -30.78125 Z M 20.71875 38.773438 C 20.71875 42.328125 23.679688 44.101562 26.046875 44.101562 L 44.101562 44.101562 C 46.46875 44.101562 49.429688 42.328125 49.429688 38.773438 L 49.429688 -5.328125 C 70.148438 1.777344 84.058594 1.777344 90.570312 1.777344 C 112.476562 1.777344 142.371094 -16.574219 142.371094 -69.851562 C 142.371094 -130.53125 114.25 -146.21875 82.582031 -146.21875 C 54.757812 -146.21875 20.71875 -139.113281 20.71875 -134.675781 Z M 20.71875 38.773438 "/></g></g></g><g fill="#000000" fill-opacity="1"><g transform="translate(806.268549, 260.999983)"><g><path d="M 92.644531 -117.210938 C 95.011719 -117.210938 95.898438 -118.988281 95.898438 -121.058594 L 95.898438 -139.707031 C 95.898438 -142.074219 94.714844 -143.554688 92.347656 -144.144531 C 85.539062 -145.921875 74.292969 -146.21875 71.035156 -146.21875 C 44.398438 -146.21875 20.71875 -137.929688 20.71875 -134.675781 L 20.71875 -5.328125 C 20.71875 -1.777344 23.679688 0 26.046875 0 L 44.101562 0 C 46.46875 0 49.429688 -1.777344 49.429688 -5.328125 L 49.429688 -112.769531 C 49.429688 -112.769531 52.6875 -118.691406 78.140625 -118.691406 C 81.988281 -118.691406 88.203125 -118.097656 92.644531 -117.210938 Z M 92.644531 -117.210938 "/></g></g></g><g fill="#000000" fill-opacity="1"><g transform="translate(914.0078, 260.999983)"><g><path d="M 34.925781 -154.800781 C 43.804688 -154.800781 51.5 -159.242188 51.5 -169.898438 C 51.5 -180.550781 43.804688 -184.992188 34.925781 -184.992188 C 25.75 -184.992188 18.351562 -180.550781 18.351562 -169.898438 C 18.351562 -159.242188 25.75 -154.800781 34.925781 -154.800781 Z M 20.71875 -5.328125 C 20.71875 -1.777344 23.679688 0 26.046875 0 L 44.101562 0 C 46.46875 0 49.429688 -1.777344 49.429688 -5.328125 L 49.429688 -139.113281 C 49.429688 -142.664062 46.46875 -144.441406 44.101562 -144.441406 L 26.046875 -144.441406 C 23.679688 -144.441406 20.71875 -142.664062 20.71875 -139.113281 Z M 20.71875 -5.328125 "/></g></g></g><g fill="#000000" fill-opacity="1"><g transform="translate(984.156691, 260.999983)"><g><path d="M 129.640625 -64.523438 C 129.640625 -79.324219 129.640625 -92.941406 125.5 -108.921875 C 136.449219 -116.914062 144.738281 -118.691406 152.136719 -118.691406 C 169.898438 -118.691406 180.847656 -112.476562 180.847656 -88.5 L 180.847656 -5.328125 C 180.847656 -1.777344 183.808594 0 186.175781 0 L 204.230469 0 C 206.597656 0 209.558594 -1.777344 209.558594 -5.328125 L 209.558594 -87.316406 C 209.558594 -133.785156 189.433594 -146.21875 156.875 -146.21875 C 153.320312 -146.21875 127.273438 -146.21875 115.433594 -131.121094 C 100.933594 -145.625 85.539062 -146.21875 68.667969 -146.21875 C 56.535156 -146.21875 20.71875 -139.707031 20.71875 -134.96875 L 20.71875 -5.328125 C 20.71875 -1.777344 23.679688 0 26.046875 0 L 44.101562 0 C 46.46875 0 49.429688 -1.777344 49.429688 -5.328125 L 49.429688 -112.476562 C 49.429688 -112.476562 66.003906 -118.691406 73.699219 -118.691406 C 93.234375 -118.691406 100.933594 -112.476562 100.933594 -87.613281 L 100.933594 -5.328125 C 100.933594 -1.777344 103.890625 0 106.257812 0 L 124.316406 0 C 126.683594 0 129.640625 -1.777344 129.640625 -5.328125 Z M 129.640625 -64.523438 "/></g></g></g><g fill="#000000" fill-opacity="1"><g transform="translate(1211.474701, 260.999983)"><g><path d="M 46.46875 -84.652344 C 46.46875 -116.914062 69.261719 -118.691406 77.84375 -118.691406 C 86.132812 -118.691406 108.921875 -116.914062 108.921875 -84.652344 Z M 118.691406 -27.824219 C 108.921875 -26.933594 102.117188 -25.75 95.308594 -25.75 C 64.523438 -25.75 48.839844 -27.824219 46.765625 -56.828125 L 46.765625 -58.605469 L 132.304688 -58.605469 C 134.675781 -58.605469 137.632812 -60.382812 137.632812 -63.933594 L 137.632812 -83.171875 C 137.632812 -98.859375 132.898438 -146.21875 76.660156 -146.21875 C 21.605469 -146.21875 17.757812 -100.636719 17.757812 -84.949219 L 17.757812 -64.230469 C 17.757812 -15.09375 46.46875 2.367188 83.765625 2.367188 C 97.675781 2.367188 111.585938 1.183594 123.128906 -1.183594 C 125.203125 -1.777344 125.792969 -4.144531 125.792969 -5.03125 L 122.835938 -25.160156 C 121.945312 -27.230469 120.171875 -27.824219 118.691406 -27.824219 Z M 118.691406 -27.824219 "/></g></g></g><g fill="#000000" fill-opacity="1"><g transform="translate(1366.867881, 260.999983)"><g><path d="M 14.800781 -14.800781 C 14.800781 -5.625 22.199219 1.777344 31.375 1.777344 C 40.550781 1.777344 47.949219 -5.625 47.949219 -14.800781 C 47.949219 -23.679688 40.550781 -31.078125 31.375 -31.078125 C 22.199219 -31.078125 14.800781 -23.679688 14.800781 -14.800781 Z M 14.800781 -14.800781 "/></g></g></g></svg>